<?xml version="1.0" standalone="no"?>
<!DOCTYPE svg PUBLIC "-//W3C//DTD SVG 20010904//EN"
 "http://www.w3.org/TR/2001/REC-SVG-20010904/DTD/svg10.dtd">
<svg version="1.0" xmlns="http://www.w3.org/2000/svg"
 width="979.000000pt" height="164.000000pt" viewBox="0 0 979.000000 164.000000"
 preserveAspectRatio="xMidYMid meet">

<g transform="translate(0.000000,164.000000) scale(0.100000,-0.100000)"
fill="#000000" stroke="none">
<path d="M610 1501 c-107 -26 -172 -55 -257 -113 -104 -72 -166 -145 -223
-263 -105 -215 -105 -415 0 -627 84 -168 244 -302 430 -359 107 -33 283 -33
390 0 181 55 341 186 428 350 79 147 101 364 53 521 -55 181 -170 324 -340
422 -133 77 -333 106 -481 69z m120 -687 l0 -647 -64 6 c-258 24 -496 241
-551 502 -61 292 78 586 338 715 92 46 167 68 235 69 l42 1 0 -646z m245 612
c102 -39 175 -88 253 -170 235 -248 235 -634 0 -882 -111 -117 -253 -190 -387
-200 l-66 -5 30 17 c72 41 137 98 179 157 178 250 179 691 3 942 -42 58 -107
116 -177 156 l-35 20 66 -5 c36 -3 96 -16 134 -30z"/>
<path d="M1696 1018 c1 -159 1 -163 22 -166 21 -3 22 0 23 110 l0 113 41 -112
c32 -90 44 -113 59 -113 10 0 19 6 20 13 0 6 0 80 0 162 0 143 -1 150 -21 153
-19 3 -20 -2 -20 -105 l-1 -108 -28 80 c-48 134 -49 135 -73 135 l-23 0 1
-162z"/>
<path d="M1994 1166 c-3 -8 -4 -82 -2 -163 l3 -148 78 -3 c77 -3 77 -3 77 23
0 23 -3 25 -51 25 l-50 0 3 48 c3 45 4 47 33 47 23 1 31 6 33 23 3 19 -1 22
-32 22 -36 0 -36 0 -36 45 l0 45 45 0 c41 0 45 2 45 25 0 24 -2 25 -70 25 -52
0 -72 -4 -76 -14z"/>
<path d="M2295 1158 c-5 -24 -55 -299 -55 -305 0 -1 11 -3 24 -3 19 0 25 7 30
35 6 32 10 35 41 35 33 0 35 -2 35 -35 0 -31 3 -35 25 -35 14 0 25 3 25 8 0 4
-12 78 -27 165 l-27 157 -33 0 c-26 0 -34 -5 -38 -22z m59 -160 c5 -25 2 -28
-20 -28 -26 0 -26 1 -20 58 11 91 19 104 27 47 4 -27 10 -62 13 -77z"/>
<path d="M2530 1015 l0 -165 25 0 c24 0 25 2 25 70 0 62 2 70 19 70 15 0 22
-15 37 -70 17 -65 20 -70 45 -70 l27 0 -23 75 c-13 41 -19 75 -14 75 19 0 42
67 35 103 -10 54 -46 77 -117 77 l-59 0 0 -165z m111 104 c15 -15 19 -28 14
-47 -8 -31 -21 -42 -52 -42 -21 0 -23 5 -23 48 0 68 20 82 61 41z"/>
<path d="M2930 1015 l0 -165 74 0 c58 0 75 3 80 16 10 26 -3 34 -55 34 l-50 0
3 48 c3 45 4 47 33 47 31 0 51 18 40 35 -3 6 -22 10 -41 10 -34 0 -34 0 -34
45 l0 45 50 0 c47 0 50 2 50 25 0 24 -2 25 -75 25 l-75 0 0 -165z"/>
<path d="M3220 1108 c-7 -40 -20 -113 -30 -163 -17 -89 -16 -90 3 -93 23 -4
37 13 37 46 0 18 5 22 34 22 31 0 34 -3 40 -35 6 -29 11 -35 32 -35 19 0 24 4
20 18 -3 9 -14 71 -26 137 -32 189 -27 175 -65 175 l-33 0 -12 -72z m64 -85
c7 -52 6 -53 -19 -53 -20 0 -25 4 -21 18 2 9 8 44 12 77 8 66 15 55 28 -42z"/>
<path d="M3480 1160 c-22 -22 -26 -69 -9 -103 7 -12 32 -43 56 -70 30 -32 43
-55 41 -70 -4 -31 -49 -31 -63 0 -7 17 -15 21 -30 17 -28 -9 -28 -9 -10 -44
20 -39 58 -55 98 -40 81 28 73 123 -15 188 -10 7 -24 25 -32 40 -25 49 16 85
47 42 9 -13 20 -18 31 -14 20 8 20 23 0 52 -20 29 -85 31 -114 2z"/>
<path d="M3720 1155 c0 -20 5 -25 25 -25 l25 0 0 -140 0 -140 25 0 25 0 0 140
0 140 30 0 c25 0 30 4 30 25 0 25 -1 25 -80 25 -79 0 -80 0 -80 -25z"/>
<path d="M4089 1063 c-1 -65 0 -129 1 -143 4 -57 50 -90 105 -76 46 12 54 39
56 191 l1 140 -26 3 -25 3 -3 -143 -3 -143 -25 0 -25 0 -3 143 -3 142 -24 0
-25 0 -1 -117z"/>
<path d="M4390 1178 c0 -2 -1 -75 -2 -163 -1 -157 -1 -160 20 -163 21 -3 22
-1 23 110 l0 113 41 -112 c34 -97 43 -113 62 -113 22 0 22 2 22 165 l-1 165
-23 0 c-24 0 -24 0 -20 -115 1 -64 0 -108 -4 -98 -3 10 -22 61 -41 113 -27 76
-38 96 -55 98 -12 2 -22 2 -22 0z"/>
<path d="M4690 1015 l0 -165 25 0 25 0 0 165 0 165 -25 0 -25 0 0 -165z"/>
<path d="M4850 1167 c0 -12 42 -234 55 -294 4 -17 13 -23 33 -23 l29 0 27 148
c15 81 30 155 33 165 3 13 -2 17 -20 17 -24 0 -26 -5 -42 -97 -9 -54 -21 -111
-25 -128 l-8 -30 -1 28 c-1 15 -8 73 -18 127 -15 94 -18 100 -40 100 -12 0
-23 -6 -23 -13z"/>
<path d="M5140 1015 l0 -165 75 0 c73 0 75 1 75 25 0 23 -3 25 -50 25 l-50 0
0 49 0 50 33 -2 c26 -2 33 2 35 21 3 19 -1 22 -32 22 -36 0 -36 0 -36 44 l0
45 48 3 c39 3 47 6 47 23 0 18 -8 20 -72 23 l-73 3 0 -166z"/>
<path d="M5400 1015 l0 -166 27 3 c27 3 28 5 28 68 0 53 3 65 17 68 13 3 21
-13 38 -67 19 -64 23 -71 46 -71 17 0 24 5 21 13 -2 6 -12 38 -21 70 -16 56
-16 59 4 84 26 34 27 102 1 134 -16 19 -30 24 -90 27 l-71 4 0 -167z m114 109
c34 -33 12 -94 -33 -94 -31 0 -30 -4 -22 98 1 17 37 15 55 -4z"/>
<path d="M5722 1157 c-41 -44 -28 -93 45 -168 32 -34 44 -53 41 -70 -5 -35
-44 -38 -60 -5 -9 20 -16 25 -32 20 -29 -9 -29 -9 -12 -42 20 -39 63 -57 101
-42 82 31 70 119 -29 209 -14 14 -26 35 -26 48 0 33 29 42 51 15 13 -16 23
-20 38 -14 21 7 21 7 1 40 -17 27 -26 32 -58 32 -27 0 -45 -7 -60 -23z"/>
<path d="M5980 1015 l0 -165 25 0 25 0 0 165 0 165 -25 0 -25 0 0 -165z"/>
<path d="M6140 1155 c0 -21 5 -25 30 -25 l30 0 0 -140 0 -140 25 0 25 0 0 140
0 140 25 0 c20 0 25 5 25 25 0 25 -1 25 -80 25 -79 0 -80 0 -80 -25z"/>
<path d="M6380 1177 c0 -2 15 -49 34 -104 24 -70 33 -114 31 -145 -5 -60 2
-80 28 -76 19 3 21 10 23 73 2 47 12 99 33 159 17 50 31 91 31 93 0 2 -11 3
-25 3 -21 0 -26 -8 -40 -52 -8 -28 -15 -58 -15 -67 0 -27 -16 2 -34 62 -15 49
-20 57 -42 57 -13 0 -24 -1 -24 -3z"/>
<path d="M3374 680 c-47 -19 -72 -181 -41 -270 16 -45 55 -68 94 -55 44 16 63
65 63 163 0 97 -17 148 -55 162 -30 12 -33 12 -61 0z m60 -35 c21 -22 29 -75
24 -160 -6 -83 -19 -107 -57 -103 -37 4 -54 61 -49 160 6 102 40 145 82 103z"/>
<path d="M4713 680 c-62 -25 -54 -99 18 -160 62 -52 76 -83 54 -117 -22 -33
-65 -28 -83 10 -17 35 -41 36 -34 2 5 -31 46 -65 78 -65 38 0 76 40 76 82 0
44 -21 78 -73 113 -62 44 -65 106 -5 113 22 3 29 -2 39 -27 6 -17 17 -31 24
-31 32 0 -1 66 -40 80 -16 5 -30 10 -31 9 -1 0 -11 -4 -23 -9z"/>
<path d="M5542 680 c-34 -14 -52 -68 -52 -160 0 -88 16 -142 48 -159 27 -14
63 -13 83 2 36 28 53 97 24 97 -8 0 -15 -9 -15 -21 0 -37 -19 -59 -51 -59 -25
0 -33 6 -45 35 -17 41 -19 159 -3 204 19 55 79 52 93 -4 4 -14 13 -25 21 -25
18 0 18 2 0 45 -8 21 -25 39 -40 45 -31 12 -33 12 -63 0z"/>
<path d="M6077 680 c-35 -22 -51 -71 -51 -160 -1 -96 20 -148 66 -164 52 -18
108 28 108 90 0 30 -28 12 -34 -21 -5 -26 -13 -36 -31 -41 -57 -14 -75 19 -75
139 0 100 14 132 55 132 25 0 32 -5 40 -32 11 -38 35 -44 35 -9 0 51 -70 91
-113 66z"/>
<path d="M7593 678 c-33 -16 -53 -78 -53 -164 0 -122 41 -181 108 -158 43 15
62 65 62 162 0 97 -17 148 -55 162 -31 12 -34 12 -62 -2z m54 -26 c22 -14 33
-62 33 -140 0 -95 -14 -127 -55 -127 -26 0 -32 5 -43 40 -19 57 -11 188 13
215 19 21 33 24 52 12z"/>
<path d="M9390 677 c-14 -7 -30 -28 -37 -47 -17 -50 -16 -183 1 -225 29 -69
105 -71 138 -5 31 60 21 239 -15 268 -22 18 -61 23 -87 9z m57 -25 c21 -13 33
-62 33 -133 0 -90 -19 -139 -55 -139 -36 0 -55 49 -55 139 0 92 19 141 55 141
6 0 15 -4 22 -8z"/>
<path d="M1700 520 c0 -136 2 -160 15 -160 13 0 15 24 15 160 0 136 -2 160
-15 160 -13 0 -15 -24 -15 -160z"/>
<path d="M1800 521 c0 -101 4 -161 10 -161 6 0 10 54 10 143 1 96 4 137 10
125 6 -9 27 -65 49 -125 53 -147 51 -143 67 -143 11 0 14 30 14 160 0 194 -18
220 -22 33 l-3 -128 -45 125 c-38 106 -48 125 -67 128 l-23 3 0 -160z"/>
<path d="M2010 665 c0 -10 10 -15 30 -15 l30 0 0 -145 c0 -122 2 -145 15 -145
13 0 15 23 15 144 l0 145 32 3 c17 2 33 9 36 16 3 9 -17 12 -77 12 -65 0 -81
-3 -81 -15z"/>
<path d="M2210 520 l0 -160 75 0 c43 0 75 4 75 10 0 6 -27 10 -60 10 l-60 0 0
65 0 65 40 0 c29 0 40 4 40 15 0 11 -11 15 -40 15 l-40 0 0 55 0 55 55 0 c42
0 55 3 55 15 0 12 -14 15 -70 15 l-70 0 0 -160z"/>
<path d="M2400 520 c0 -136 2 -160 15 -160 12 0 15 15 15 75 l0 75 28 0 c27 0
30 -5 52 -75 14 -44 29 -75 37 -75 18 0 16 16 -8 89 l-21 62 23 25 c32 35 30
91 -6 121 -20 18 -38 23 -81 23 l-54 0 0 -160z m118 118 c17 -17 15 -64 -4
-82 -8 -9 -31 -16 -50 -16 l-34 0 0 55 0 55 38 0 c21 0 43 -5 50 -12z"/>
<path d="M2620 520 c0 -136 2 -160 15 -160 13 0 15 23 15 143 l1 142 52 -140
c37 -99 57 -141 70 -143 16 -3 17 10 17 157 0 136 -2 161 -15 161 -12 0 -15
-20 -15 -122 l-1 -123 -29 80 c-64 172 -60 165 -86 165 l-24 0 0 -160z"/>
<path d="M2871 533 c-35 -165 -36 -176 -18 -171 6 3 16 23 21 46 9 41 9 42 52
42 l43 0 7 -45 c5 -35 11 -45 25 -45 10 0 17 5 14 13 -5 14 -65 293 -65 301 0
3 -11 6 -24 6 -22 0 -25 -8 -55 -147z m69 50 c6 -32 14 -68 17 -80 5 -21 1
-23 -32 -23 -33 0 -37 2 -32 23 3 12 11 48 17 80 6 31 13 57 15 57 2 0 9 -26
15 -57z"/>
<path d="M3022 668 c3 -7 19 -14 36 -16 l32 -3 0 -145 c0 -121 2 -144 15 -144
13 0 15 23 15 144 l0 145 32 3 c17 2 33 9 36 16 3 9 -18 12 -83 12 -65 0 -86
-3 -83 -12z"/>
<path d="M3230 520 c0 -136 2 -160 15 -160 13 0 15 24 15 160 0 136 -2 160
-15 160 -13 0 -15 -24 -15 -160z"/>
<path d="M3550 520 c0 -134 2 -160 15 -160 12 0 15 25 17 141 l3 140 50 -140
c38 -108 54 -141 68 -141 15 0 17 14 17 160 0 136 -2 160 -15 160 -12 0 -15
-21 -16 -122 l0 -123 -30 80 c-16 44 -36 99 -45 123 -12 33 -21 42 -40 42
l-24 0 0 -160z"/>
<path d="M3801 533 c-36 -168 -36 -173 -17 -173 9 0 16 17 20 45 l7 45 44 0
44 0 7 -45 c5 -34 11 -45 24 -45 17 0 17 4 -1 88 -53 244 -49 232 -74 232 -20
0 -24 -10 -54 -147z m69 50 c6 -32 14 -68 17 -80 5 -21 1 -23 -32 -23 -33 0
-37 2 -32 23 3 12 11 48 17 80 6 31 13 57 15 57 2 0 9 -26 15 -57z"/>
<path d="M3990 520 l0 -160 70 0 c81 0 95 18 18 22 l-53 3 -3 148 c-2 122 -5
147 -17 147 -13 0 -15 -26 -15 -160z"/>
<path d="M4270 520 c0 -136 2 -160 15 -160 12 0 15 15 15 75 0 73 1 75 24 75
22 0 27 -8 47 -75 17 -57 26 -75 40 -75 16 0 16 6 -8 75 l-25 75 26 31 c29 34
31 43 16 86 -13 37 -46 53 -105 53 l-45 0 0 -160z m108 118 c7 -7 12 -27 12
-45 0 -36 -21 -53 -64 -53 -25 0 -26 3 -26 55 l0 55 33 0 c18 0 38 -5 45 -12z"/>
<path d="M4480 520 l0 -160 75 0 c88 0 102 18 18 22 l-58 3 0 60 0 60 43 3
c28 2 42 8 42 18 0 10 -12 14 -45 14 l-45 0 0 55 0 54 57 3 c34 2 58 8 61 16
3 9 -16 12 -72 12 l-76 0 0 -160z"/>
<path d="M4880 520 l0 -160 75 0 c43 0 75 4 75 10 0 6 -27 10 -60 10 l-60 0 0
65 0 65 40 0 c29 0 40 4 40 15 0 11 -11 15 -40 15 l-40 0 0 55 0 55 55 0 c42
0 55 3 55 15 0 12 -14 15 -70 15 l-70 0 0 -160z"/>
<path d="M5105 603 c-9 -43 -25 -115 -35 -160 -15 -68 -15 -83 -4 -83 8 0 18
19 25 45 11 45 12 45 54 45 l43 0 6 -45 c5 -29 12 -45 22 -45 19 0 19 4 -18
173 -29 136 -33 147 -54 147 -19 0 -24 -9 -39 -77z m68 -90 c6 -32 6 -33 -28
-33 -39 0 -39 2 -25 70 22 100 22 100 35 45 6 -27 15 -65 18 -82z"/>
<path d="M5280 520 c0 -136 2 -160 15 -160 12 0 15 15 15 75 0 73 1 75 24 75
22 0 28 -9 48 -71 20 -63 39 -91 53 -77 3 3 -6 37 -19 76 l-25 72 25 25 c17
17 24 35 24 64 0 55 -34 81 -106 81 l-54 0 0 -160z m112 113 c39 -35 9 -93
-49 -93 l-33 0 0 55 0 55 32 0 c17 0 40 -7 50 -17z"/>
<path d="M5710 520 c0 -136 2 -160 15 -160 12 0 15 15 15 75 l0 75 50 0 50 0
0 -75 c0 -60 3 -75 15 -75 13 0 15 24 15 160 0 136 -2 160 -15 160 -12 0 -15
-14 -15 -70 l0 -70 -50 0 -50 0 0 70 c0 56 -3 70 -15 70 -13 0 -15 -24 -15
-160z"/>
<path d="M6250 520 l0 -160 75 0 c43 0 75 4 75 10 0 6 -27 10 -60 10 l-60 0 0
65 0 65 40 0 c29 0 40 4 40 15 0 11 -11 15 -40 15 l-40 0 0 55 0 55 55 0 c42
0 55 3 55 15 0 12 -14 15 -70 15 l-70 0 0 -160z"/>
<path d="M6440 521 c0 -135 2 -161 15 -161 12 0 15 25 17 143 l3 142 51 -140
c35 -94 57 -141 68 -143 14 -3 16 14 16 157 0 195 -18 222 -22 34 l-3 -128
-46 125 c-42 114 -48 125 -72 128 l-27 3 0 -160z"/>
<path d="M6652 668 c3 -7 19 -14 36 -16 l32 -3 0 -145 c0 -121 2 -144 15 -144
13 0 15 23 15 144 l0 145 32 3 c17 2 33 9 36 16 3 9 -18 12 -83 12 -65 0 -86
-3 -83 -12z"/>
<path d="M6860 520 l0 -160 75 0 c43 0 75 4 75 10 0 6 -27 10 -60 10 l-60 0 0
65 0 65 40 0 c29 0 40 4 40 15 0 11 -11 15 -40 15 l-40 0 0 55 0 55 55 0 c42
0 55 3 55 15 0 12 -14 15 -70 15 l-70 0 0 -160z"/>
<path d="M7050 520 c0 -136 2 -160 15 -160 12 0 15 15 15 75 l0 75 28 0 c25 0
29 -6 50 -75 15 -49 28 -75 37 -75 20 0 19 4 -9 86 l-23 69 23 18 c19 14 24
27 24 62 0 60 -32 85 -106 85 l-54 0 0 -160z m114 114 c9 -8 16 -26 16 -39 0
-33 -26 -55 -66 -55 l-34 0 0 55 0 55 34 0 c19 0 42 -7 50 -16z"/>
<path d="M7370 520 c0 -136 2 -160 15 -160 12 0 15 15 15 75 l0 75 40 0 c29 0
40 4 40 15 0 11 -11 15 -40 15 l-40 0 0 55 0 55 50 0 c38 0 50 4 50 15 0 12
-14 15 -65 15 l-65 0 0 -160z"/>
<path d="M7770 520 c0 -136 2 -160 15 -160 12 0 15 15 15 76 l0 75 27 -3 c23
-3 29 -12 51 -75 14 -45 29 -73 38 -73 18 0 18 4 -9 85 l-23 68 23 23 c16 16
23 35 23 63 0 55 -34 81 -106 81 l-54 0 0 -160z m114 114 c9 -8 16 -26 16 -39
0 -33 -26 -55 -66 -55 l-34 0 0 55 0 55 34 0 c19 0 42 -7 50 -16z"/>
<path d="M8115 603 c-9 -43 -25 -115 -35 -161 -16 -76 -17 -83 -2 -80 10 2 20
19 25 46 8 42 9 42 51 42 l44 0 6 -45 c5 -29 12 -45 22 -45 19 0 19 4 -18 173
-29 136 -33 147 -54 147 -19 0 -24 -9 -39 -77z m68 -90 c6 -32 6 -33 -28 -33
-39 0 -39 2 -25 70 22 100 22 100 35 45 6 -27 15 -65 18 -82z"/>
<path d="M8290 520 c0 -136 2 -160 15 -160 13 0 15 24 15 160 0 136 -2 160
-15 160 -13 0 -15 -24 -15 -160z"/>
<path d="M8500 528 c-18 -84 -35 -157 -37 -161 -3 -5 3 -7 13 -5 13 2 21 16
27 46 8 42 8 42 52 42 l44 0 7 -45 c5 -34 11 -45 24 -45 17 0 17 4 -1 83 -10
45 -26 117 -35 160 -15 68 -20 77 -39 77 -20 0 -25 -12 -55 -152z m70 55 c6
-32 14 -68 17 -80 5 -21 1 -23 -32 -23 -33 0 -37 2 -32 23 3 12 11 48 17 80 6
31 13 57 15 57 2 0 9 -26 15 -57z"/>
<path d="M8690 520 c0 -136 2 -160 15 -160 13 0 15 23 16 143 l0 142 52 -142
c40 -110 56 -143 69 -143 16 0 18 14 18 160 0 136 -2 160 -15 160 -12 0 -15
-21 -16 -122 l0 -123 -46 123 c-41 108 -49 122 -69 122 l-24 0 0 -160z"/>
<path d="M8930 520 l0 -160 46 0 c58 0 82 13 100 55 17 41 18 159 3 204 -14
38 -54 61 -109 61 l-40 0 0 -160z m106 120 c10 0 24 -76 24 -124 0 -83 -8
-104 -41 -121 -58 -30 -59 -28 -59 118 0 74 3 136 6 139 3 4 20 2 37 -3 18 -5
33 -9 33 -9z"/>
<path d="M9250 520 c0 -136 2 -160 15 -160 13 0 15 24 15 160 0 136 -2 160
-15 160 -13 0 -15 -24 -15 -160z"/>
<path d="M9540 665 c0 -10 10 -15 30 -15 l30 0 0 -145 c0 -122 2 -145 15 -145
13 0 15 23 15 145 l0 145 35 0 c24 0 35 5 35 15 0 12 -16 15 -80 15 -64 0 -80
-3 -80 -15z"/>
</g>
</svg>
